<svg width="32" height="32" viewBox="0 0 60 60" fill="none" xmlns="http://www.w3.org/2000/svg" class="absolute top-8 left-8"><path d="M17.0627 57.0745L18.464 50.6008C20.027 43.3803 14.5259 36.5603 7.13886 36.5603H0.719948C2.74424 45.6327 8.8765 53.1555 17.0627 57.0745Z" fill="#F8D3AB"></path><path d="M19.8779 58.2493C23.0402 59.3826 26.448 60 30 60C44.3143 60 56.2871 49.9738 59.2801 36.5603H39.698C30.8714 36.5603 23.24 42.7171 21.3725 51.3446L19.8779 58.2493Z" fill="#F8D3AB"></path><path d="M59.7907 33.5601C59.9289 32.3917 60 31.2028 60 29.9972C60 14.2575 47.881 1.34866 32.466 0.0943596L28.2613 19.5196C26.6984 26.7401 32.1994 33.5601 39.5864 33.5601H59.7907Z" fill="#F8D3AB"></path><path d="M29.417 0C13.1175 0.310719 0 13.622 0 29.9972C0 31.2028 0.0710936 32.3917 0.209318 33.5601H7.02728C15.8539 33.5601 23.4853 27.4033 25.3528 18.7757L29.417 0Z" fill="#F8D3AB"></path></svg>